<svg width="210" height="60" viewBox="0 0 210 60" fill="none" xmlns="http://www.w3.org/2000/svg">
<g clip-path="url(#clip0_34_74)">
<path d="M5.89113 50.2441H4.5136L1.97836 53.3233H1.26029V50.2441H0.190506V57.3352H1.26029V54.3448H2.24215L4.54291 57.3352H5.9351L3.0628 53.6638L5.89113 50.2441Z" fill="#A5A5A5"/>
<path d="M10.478 55.8993H10.4047L8.44103 50.2442H7.26866L9.90648 57.3797L9.70132 57.9274C9.60684 58.3276 9.35916 58.6736 9.01256 58.8896C8.69355 58.9948 8.34971 58.9948 8.0307 58.8896L7.75226 59.8519L8.06001 59.9407C8.22078 59.9574 8.38283 59.9574 8.54361 59.9407C8.84583 59.9449 9.1455 59.8843 9.42288 59.7631C9.69111 59.6432 9.92722 59.4605 10.1116 59.2301C10.3289 58.961 10.4975 58.6553 10.6099 58.3271L13.5408 50.2146H12.3685L10.478 55.8993Z" fill="#A5A5A5"/>
<path d="M20.1647 50.5997C19.7037 50.2939 19.1628 50.1341 18.6113 50.1407C18.2358 50.1254 17.8626 50.2069 17.5269 50.3776C17.2834 50.4978 17.0723 50.6756 16.9114 50.8958L16.5743 51.3695H16.4424V50.2444H15.4019V60.0001H16.4864V56.2399H16.5743C16.6622 56.3732 16.7648 56.536 16.9114 56.7285C17.0809 56.95 17.2958 57.1318 17.5415 57.2614C17.8797 57.4234 18.252 57.4997 18.626 57.4835C19.1758 57.4937 19.7163 57.3391 20.1793 57.0393C20.6345 56.7147 20.9981 56.2759 21.2345 55.7662C21.4917 55.1483 21.6165 54.4823 21.6008 53.8121C21.6199 53.1464 21.4949 52.4846 21.2345 51.8728C21.0014 51.3566 20.6311 50.9158 20.1647 50.5997ZM20.2966 55.1593C20.1673 55.5464 19.9277 55.8863 19.6078 56.1363C19.2873 56.3914 18.8872 56.5226 18.4794 56.5064C18.0859 56.5183 17.6996 56.3986 17.3803 56.1659C17.07 55.9161 16.8362 55.5824 16.7062 55.2037C16.5305 54.7311 16.4507 54.2277 16.4717 53.7233C16.4638 53.25 16.5382 52.779 16.6915 52.3317C16.827 51.9641 17.0603 51.6414 17.3657 51.3991C17.6927 51.1725 18.0832 51.0583 18.4794 51.0734C18.889 51.0593 19.2915 51.1844 19.6225 51.4287C19.9368 51.6684 20.1718 51.9988 20.2966 52.3761C20.4597 52.8058 20.5393 53.2632 20.531 53.7233C20.5466 54.2116 20.472 54.6985 20.3112 55.1593H20.2966Z" fill="#A5A5A5"/>
<path d="M25.455 51.4582C25.7796 51.2383 26.1633 51.1246 26.5541 51.1325C26.9328 51.1065 27.3085 51.2151 27.6163 51.4395C27.9241 51.6639 28.1445 51.9899 28.2394 52.3612H29.3238C29.2725 51.9409 29.1105 51.5421 28.8548 51.2065C28.593 50.8708 28.2567 50.602 27.873 50.4219C27.4532 50.2337 26.9987 50.1378 26.5394 50.1406C25.9529 50.1276 25.3761 50.2926 24.8835 50.6143C24.3988 50.9346 24.0128 51.386 23.7697 51.9171C23.4955 52.5149 23.3601 53.1681 23.374 53.8268C23.3655 54.4787 23.4954 55.1248 23.7551 55.7217C23.9978 56.2446 24.3779 56.6901 24.8541 57.0096C25.3153 57.2867 25.8357 57.4474 26.3714 57.4783C26.9071 57.5093 27.4422 57.4094 27.9316 57.1873C28.3021 57.0056 28.6238 56.7365 28.8695 56.4027C29.1158 56.0687 29.2723 55.676 29.3238 55.2628H28.2394C28.1853 55.5103 28.0693 55.7397 27.9023 55.9289C27.7455 56.1129 27.5503 56.2595 27.3308 56.3582C27.0851 56.4623 26.8204 56.5128 26.5541 56.5063C26.1569 56.5119 25.7678 56.3929 25.4403 56.1658C25.1134 55.9252 24.8596 55.597 24.7076 55.2183C24.5288 54.7463 24.4441 54.2432 24.4585 53.7379C24.4479 53.2605 24.5379 52.7862 24.7223 52.3464C24.8808 51.9878 25.1344 51.6804 25.455 51.4582Z" fill="#A5A5A5"/>
<path d="M34.2624 52.8052H32.4013V50.2441H31.3168V57.3352H34.2477C34.7301 57.3489 35.2083 57.2421 35.6399 57.0243C35.9986 56.8465 36.2952 56.5625 36.4899 56.2101C36.6911 55.8545 36.7925 55.4501 36.783 55.0406C36.7891 54.7437 36.7351 54.4488 36.6242 54.1738C36.5133 53.8989 36.3479 53.6497 36.1382 53.4418C35.6168 52.9945 34.9453 52.7666 34.2624 52.8052ZM35.3175 55.9732C35.0199 56.2167 34.6451 56.3429 34.2624 56.3285H32.4013V53.8267H34.2624C34.6451 53.8123 35.0199 53.9385 35.3175 54.182C35.4485 54.2951 35.5531 54.436 35.6241 54.5946C35.695 54.7533 35.7304 54.9258 35.7278 55.0998C35.7302 55.2674 35.6944 55.4333 35.6232 55.5847C35.5521 55.7361 35.4475 55.869 35.3175 55.9732Z" fill="#A5A5A5"/>
<path d="M38.9958 50.2441H37.9114V57.3352H38.9958V50.2441Z" fill="#A5A5A5"/>
<path d="M46.5429 51.4582C46.8721 51.2362 47.261 51.1225 47.6567 51.1325C48.0329 51.1101 48.4052 51.2203 48.7099 51.4444C49.0146 51.6686 49.2329 51.9926 49.3273 52.3612H50.4117C50.3604 51.9409 50.1985 51.5421 49.9428 51.2065C49.6842 50.8675 49.347 50.598 48.9609 50.4219C48.5412 50.2337 48.0866 50.1378 47.6273 50.1406C47.0409 50.1276 46.464 50.2926 45.9714 50.6143C45.4902 50.9387 45.1053 51.389 44.8576 51.9171C44.5965 52.5166 44.4616 53.1644 44.4616 53.8194C44.4616 54.4744 44.5965 55.1222 44.8576 55.7217C45.0954 56.2651 45.4894 56.7237 45.9886 57.0379C46.4878 57.3521 47.069 57.5073 47.6567 57.4834C48.1279 57.4968 48.5954 57.3952 49.0195 57.1873C49.3923 57.0092 49.7148 56.7394 49.9574 56.4027C50.2037 56.0687 50.3602 55.676 50.4117 55.2628H49.3273C49.2732 55.5103 49.1572 55.7397 48.9902 55.9289C48.8376 56.1173 48.6412 56.2648 48.4187 56.3582C48.1141 56.4825 47.7841 56.5299 47.4572 56.4964C47.1304 56.4628 46.8166 56.3494 46.5429 56.1658C46.2082 55.9334 45.9524 55.6026 45.8102 55.2183C45.6187 54.7495 45.5287 54.2448 45.5464 53.7379C45.5359 53.2605 45.6258 52.7862 45.8102 52.3464C45.9731 51.9905 46.2258 51.6842 46.5429 51.4582Z" fill="#A5A5A5"/>
<path d="M56.9623 50.5994C56.5957 50.3691 56.1852 50.2194 55.7576 50.1598C55.3299 50.1002 54.8946 50.1321 54.48 50.2536C54.0654 50.3751 53.6807 50.5833 53.3509 50.8648C53.0211 51.1463 52.7537 51.4947 52.566 51.8874C52.305 52.4973 52.1704 53.1548 52.1704 53.8193C52.1704 54.4838 52.305 55.1412 52.566 55.7512C52.8188 56.2801 53.2142 56.7263 53.7067 57.0385C54.1992 57.3507 54.7689 57.5163 55.3503 57.5163C55.9318 57.5163 56.5014 57.3507 56.9939 57.0385C57.4864 56.7263 57.8818 56.2801 58.1347 55.7512C58.3956 55.1412 58.5302 54.4838 58.5302 53.8193C58.5302 53.1548 58.3956 52.4973 58.1347 51.8874C57.8707 51.3559 57.4645 50.9097 56.9623 50.5994ZM57.1675 55.1442C57.034 55.5333 56.7955 55.8769 56.4787 56.1361C56.1287 56.3767 55.7151 56.5053 55.2917 56.5053C54.8683 56.5053 54.4547 56.3767 54.1047 56.1361C53.7879 55.8769 53.5494 55.5333 53.4159 55.1442C53.266 54.7217 53.1916 54.2756 53.1961 53.8267C53.1929 53.3731 53.2672 52.9223 53.4159 52.4943C53.5527 52.107 53.7907 51.7643 54.1047 51.5025C54.4547 51.2619 54.8683 51.1333 55.2917 51.1333C55.7151 51.1333 56.1287 51.2619 56.4787 51.5025C56.7927 51.7643 57.0307 52.107 57.1675 52.4943C57.328 52.9196 57.4076 53.3716 57.402 53.8267C57.409 54.2771 57.3293 54.7245 57.1675 55.1442Z" fill="#A5A5A5"/>
<path d="M65.3008 53.9452C65.0695 53.7976 64.8097 53.7017 64.5387 53.6639C64.9012 53.5947 65.2395 53.4315 65.5206 53.1901C65.65 53.0584 65.7507 52.9008 65.8163 52.7275C65.882 52.5541 65.911 52.3688 65.9016 52.1835C65.9063 51.9184 65.8475 51.656 65.7301 51.4189C65.6127 51.1817 65.4403 50.9768 65.2275 50.8216C64.7034 50.4448 64.0669 50.2618 63.425 50.3034H60.4941V57.3944H63.806C64.2303 57.4102 64.6522 57.3239 65.037 57.1428C65.3573 56.9991 65.6277 56.7619 65.8137 56.4618C66.0017 56.1774 66.0989 55.8415 66.0921 55.4995C66.1072 55.1674 66.0257 54.838 65.8576 54.5521C65.7228 54.3077 65.5318 54.0995 65.3008 53.9452ZM61.5785 51.2953H63.425C63.7838 51.2774 64.1401 51.3648 64.4508 51.5469C64.5663 51.6245 64.6605 51.7303 64.7246 51.8546C64.7887 51.9788 64.8205 52.1174 64.8172 52.2575C64.8178 52.4521 64.7617 52.6426 64.656 52.8053C64.5295 52.9623 64.3619 53.0802 64.1724 53.1457C63.9347 53.2407 63.6805 53.286 63.425 53.279H61.5785V51.2953ZM64.7439 56.1361C64.4901 56.325 64.1794 56.4192 63.8646 56.4026H61.5785V54.2116H63.8646C64.1885 54.2005 64.5039 54.3173 64.7439 54.5373C64.8496 54.6523 64.9313 54.7875 64.9841 54.935C65.037 55.0826 65.06 55.2393 65.0516 55.396C65.0497 55.5248 65.0213 55.6518 64.9684 55.769C64.9154 55.8862 64.839 55.991 64.7439 56.0769V56.1361Z" fill="#A5A5A5"/>
<path d="M73.0091 50.5996C72.5421 50.2951 71.9969 50.1355 71.441 50.1407C71.0656 50.1266 70.6927 50.2081 70.3566 50.3776C70.1186 50.5061 69.9091 50.6824 69.7411 50.8957L69.4041 51.3695H69.2868V50.2444H68.2317V60.0001H69.3161V56.2399H69.4041L69.7411 56.7284C69.914 56.9466 70.1282 57.1278 70.3713 57.2614C70.7095 57.4234 71.0817 57.4997 71.4557 57.4835C72.0055 57.4936 72.5461 57.3391 73.0091 57.0393C73.4738 56.7253 73.8399 56.2836 74.0642 55.7662C74.3269 55.1495 74.4567 54.4834 74.4452 53.8121C74.4597 53.1453 74.3296 52.4834 74.0642 51.8728C73.8399 51.3554 73.4738 50.9137 73.0091 50.5996ZM73.1263 55.1592C72.9971 55.5464 72.7575 55.8863 72.4375 56.1363C72.1183 56.3938 71.7173 56.5253 71.3092 56.5064C70.9163 56.5139 70.5312 56.3946 70.2101 56.1659C69.8997 55.9161 69.6659 55.5824 69.5359 55.2037C69.3602 54.7311 69.2805 54.2276 69.3015 53.7233C69.2905 53.2485 69.3701 52.7761 69.5359 52.3317C69.6608 51.9584 69.8961 51.6329 70.2101 51.3991C70.5307 51.1707 70.9172 51.0561 71.3092 51.0734C71.7188 51.0593 72.1213 51.1844 72.4522 51.4286C72.7669 51.6713 73.006 52.0002 73.141 52.3761C73.2922 52.8086 73.3666 53.2646 73.3608 53.7233C73.3795 54.213 73.2997 54.7015 73.1263 55.1592Z" fill="#A5A5A5"/>
<path d="M81.4208 50.9845C81.1392 50.7185 80.8044 50.5166 80.4389 50.3924C80.09 50.2699 79.7239 50.2049 79.3545 50.1999C78.768 50.1869 78.1912 50.3519 77.6985 50.6737C77.2174 50.998 76.8324 51.4483 76.5848 51.9764C76.3123 52.58 76.1771 53.2376 76.1891 53.9009C76.1752 54.5596 76.3106 55.2128 76.5848 55.8106C76.8328 56.3398 77.2306 56.7829 77.7278 57.0837C78.2535 57.4026 78.8589 57.5619 79.4717 57.5426C79.9114 57.5487 80.3485 57.4734 80.7613 57.3206C81.121 57.1882 81.4466 56.9757 81.7139 56.6988C81.9673 56.429 82.1576 56.1053 82.2708 55.7514L81.2303 55.4553C81.1526 55.693 81.0164 55.9069 80.8346 56.0771C80.6659 56.239 80.4665 56.3649 80.2484 56.4472C79.9969 56.526 79.7351 56.5659 79.4717 56.5656C79.0712 56.5732 78.6761 56.4709 78.3287 56.2695C77.9923 56.0728 77.7218 55.7789 77.552 55.4257C77.38 55.0445 77.2901 54.6307 77.2882 54.2118H82.3733V53.7529C82.3926 53.1845 82.3082 52.6175 82.1242 52.08C81.9708 51.6678 81.7308 51.2941 81.4208 50.9845ZM77.3175 53.2199C77.3344 52.8965 77.4141 52.5797 77.552 52.2873C77.7211 51.9521 77.9674 51.6627 78.2701 51.4435C78.6035 51.2326 78.9905 51.1246 79.3838 51.1326C79.7435 51.1241 80.0986 51.2163 80.4096 51.399C80.6976 51.5739 80.9272 51.8316 81.0691 52.1392C81.2306 52.4757 81.3109 52.8461 81.3036 53.2199H77.3175Z" fill="#A5A5A5"/>
<path d="M91.0782 50.2441H90.7704L88.3231 55.8548L85.9051 50.2441H85.5534H84.8939H84.4689V57.3352H85.5534V51.8134L87.8835 57.3352H88.7627L91.0782 51.9022V57.3352H92.1626V50.2441H91.7962H91.0782Z" fill="#A5A5A5"/>
<path d="M99.4752 50.9845C99.199 50.7188 98.869 50.5168 98.508 50.3924C98.1591 50.2699 97.793 50.2049 97.4236 50.1999C96.8371 50.1869 96.2602 50.3519 95.7676 50.6737C95.2829 50.994 94.897 51.4454 94.6539 51.9764C94.3814 52.58 94.2462 53.2376 94.2582 53.9009C94.2443 54.5596 94.3796 55.2128 94.6539 55.8106C94.898 56.3378 95.2905 56.7806 95.7823 57.0837C96.3131 57.403 96.9233 57.5622 97.5408 57.5426C97.9757 57.5485 98.408 57.4733 98.8158 57.3206C99.178 57.1845 99.5076 56.9726 99.783 56.6988C100.032 56.4254 100.221 56.1028 100.34 55.7514L99.2994 55.4257C99.2202 55.6592 99.09 55.8718 98.9184 56.0475C98.7443 56.2098 98.5401 56.3356 98.3175 56.4176C98.071 56.4963 97.814 56.5362 97.5555 56.536C97.1505 56.5419 96.7512 56.4398 96.3978 56.2399C96.0657 56.0423 95.8001 55.7483 95.6357 55.3961C95.4564 55.0174 95.3661 54.6019 95.372 54.1822H100.457V53.7233C100.472 53.154 100.383 52.5868 100.193 52.0504C100.037 51.6447 99.7915 51.2803 99.4752 50.9845ZM95.3573 53.2791C95.3691 52.9287 95.4613 52.5859 95.6266 52.2777C95.7919 51.9694 96.0258 51.7041 96.3098 51.5027C96.6422 51.2894 97.03 51.1812 97.4236 51.1918C97.7789 51.1813 98.1298 51.2737 98.4348 51.4583C98.7238 51.6362 98.9574 51.8927 99.1089 52.1985C99.2704 52.5349 99.3507 52.9052 99.3433 53.2791H95.3573Z" fill="#A5A5A5"/>
<path d="M106.978 53.2937H103.622V50.2441H102.538V57.3352H103.622V54.3004H106.978V57.3352H108.063V50.2441H106.978V53.2937Z" fill="#A5A5A5"/>
<path d="M114.936 53.2937H111.58V50.2441H110.495V57.3352H111.58V54.3004H114.936V57.3352H116.02V50.2441H114.936V53.2937Z" fill="#A5A5A5"/>
<path d="M126.132 50.2441H125.047V57.3352H126.132V50.2441Z" fill="#A5A5A5"/>
<path d="M121.398 52.8052H119.523V50.2441H118.453V57.3352H121.384C121.862 57.3515 122.336 57.2445 122.761 57.0243C123.124 56.8467 123.425 56.563 123.626 56.2101C123.827 55.8545 123.929 55.4501 123.919 55.0406C123.925 54.7437 123.871 54.4488 123.76 54.1738C123.649 53.8989 123.484 53.6497 123.274 53.4418C122.753 52.9945 122.081 52.7666 121.398 52.8052ZM122.439 55.9732C122.151 56.2234 121.778 56.3508 121.398 56.3285H119.523V53.8267H121.398C121.778 53.8044 122.151 53.9318 122.439 54.182C122.574 54.2922 122.683 54.4322 122.756 54.5913C122.83 54.7503 122.867 54.9242 122.864 55.0998C122.867 55.269 122.83 55.4365 122.756 55.5884C122.682 55.7403 122.573 55.8722 122.439 55.9732Z" fill="#A5A5A5"/>
<path d="M132.609 50.2441L130.924 53.1457L129.239 50.2441H128.008L130.235 53.7823L128.008 57.3352H129.239L130.924 54.5817L132.609 57.3352H133.855L131.583 53.7823L133.855 50.2441H132.609Z" fill="#A5A5A5"/>
<path d="M139.277 57.3352H140.347V51.2508H143.717V57.3352H144.802V50.2441H139.277V57.3352Z" fill="#A5A5A5"/>
<path d="M152.056 50.5996C151.589 50.2951 151.044 50.1355 150.488 50.1407C150.112 50.1266 149.739 50.2081 149.403 50.3776C149.163 50.5019 148.952 50.6789 148.788 50.8957L148.451 51.3695H148.319V50.2444H147.278V60.0001H148.363V56.2399H148.451C148.539 56.3731 148.641 56.536 148.788 56.7284C148.961 56.9466 149.175 57.1278 149.418 57.2614C149.756 57.4234 150.128 57.4997 150.502 57.4835C151.052 57.4936 151.593 57.3391 152.056 57.0393C152.511 56.7147 152.875 56.2759 153.111 55.7662C153.374 55.1495 153.503 54.4834 153.492 53.8121C153.506 53.1453 153.376 52.4834 153.111 51.8728C152.879 51.3604 152.514 50.9206 152.056 50.5996ZM152.173 55.1592C152.044 55.5464 151.804 55.8863 151.484 56.1363C151.165 56.3938 150.764 56.5253 150.356 56.5064C149.963 56.5139 149.578 56.3946 149.257 56.1659C148.946 55.9161 148.713 55.5824 148.583 55.2037C148.407 54.7311 148.327 54.2276 148.348 53.7233C148.34 53.25 148.415 52.779 148.568 52.3317C148.703 51.9599 148.943 51.6359 149.257 51.3991C149.577 51.1707 149.964 51.0561 150.356 51.0734C150.766 51.0593 151.168 51.1844 151.499 51.4286C151.813 51.6684 152.048 51.9987 152.173 52.3761C152.336 52.8058 152.416 53.2632 152.408 53.7233C152.389 54.2213 152.269 54.7101 152.056 55.1592H152.173Z" fill="#A5A5A5"/>
<path d="M160.028 50.5994C159.524 50.2986 158.95 50.1399 158.365 50.1399C157.779 50.1399 157.205 50.2986 156.701 50.5994C156.217 50.9139 155.831 51.3604 155.588 51.8874C155.317 52.4948 155.177 53.1533 155.177 53.8193C155.177 54.4854 155.317 55.1438 155.588 55.7512C155.828 56.2764 156.215 56.719 156.701 57.0243C157.205 57.3252 157.779 57.4839 158.365 57.4839C158.95 57.4839 159.524 57.3252 160.028 57.0243C160.514 56.719 160.901 56.2764 161.142 55.7512C161.412 55.1438 161.552 54.4854 161.552 53.8193C161.552 53.1533 161.412 52.4948 161.142 51.8874C160.898 51.3604 160.512 50.9139 160.028 50.5994ZM160.248 55.1442C160.114 55.5333 159.876 55.8769 159.559 56.1361C159.207 56.378 158.791 56.5072 158.365 56.5072C157.939 56.5072 157.523 56.378 157.17 56.1361C156.854 55.8769 156.615 55.5333 156.482 55.1442C156.332 54.7217 156.257 54.2756 156.262 53.8267C156.258 53.3731 156.333 52.9223 156.482 52.4943C156.618 52.107 156.856 51.7643 157.17 51.5025C157.523 51.2607 157.939 51.1313 158.365 51.1313C158.791 51.1313 159.207 51.2607 159.559 51.5025C159.873 51.7643 160.111 52.107 160.248 52.4943C160.396 52.9223 160.471 53.3731 160.468 53.8267C160.472 54.2756 160.398 54.7217 160.248 55.1442Z" fill="#A5A5A5"/>
<path d="M169.876 51.1622C169.599 50.8374 169.253 50.5794 168.865 50.4072C168.454 50.2251 168.009 50.1343 167.56 50.1407V47.8757H166.491V50.1407C166.042 50.1343 165.597 50.2251 165.186 50.4072C164.799 50.582 164.454 50.8396 164.175 51.1622C163.89 51.5022 163.671 51.8941 163.53 52.3169C163.377 52.7952 163.298 53.2946 163.296 53.7973C163.295 54.3002 163.375 54.8 163.53 55.2777C163.671 55.7005 163.89 56.0923 164.175 56.4324C164.452 56.754 164.798 57.0072 165.186 57.1725C165.597 57.3546 166.042 57.4455 166.491 57.439V59.7188H167.56V57.439C168.009 57.4455 168.454 57.3546 168.865 57.1725C169.255 57.0111 169.602 56.7573 169.876 56.4324C170.167 56.0962 170.386 55.7031 170.521 55.2777C170.676 54.8 170.755 54.3002 170.755 53.7973C170.753 53.2946 170.674 52.7952 170.521 52.3169C170.386 51.8914 170.167 51.4984 169.876 51.1622ZM166.491 56.5064C166.064 56.5277 165.644 56.3967 165.304 56.1363C164.982 55.8785 164.738 55.5349 164.6 55.1444C164.45 54.7219 164.376 54.2758 164.38 53.8269C164.379 53.482 164.423 53.1385 164.512 52.8054C164.581 52.4965 164.711 52.2046 164.893 51.9468C165.065 51.6967 165.29 51.4892 165.553 51.3398C165.845 51.1973 166.166 51.1263 166.491 51.1326V56.5064ZM169.539 54.8336C169.469 55.1471 169.34 55.4438 169.158 55.707C168.99 55.9477 168.77 56.1455 168.513 56.2843C168.219 56.4389 167.891 56.5153 167.56 56.5064V51.1326C167.991 51.114 168.415 51.2446 168.762 51.5027C169.071 51.7688 169.308 52.1101 169.451 52.4945C169.599 52.9225 169.674 53.3733 169.671 53.8269C169.673 54.167 169.629 54.5058 169.539 54.8336Z" fill="#A5A5A5"/>
<path d="M177.731 50.9845C177.449 50.7185 177.114 50.5166 176.749 50.3924C176.4 50.2699 176.034 50.2049 175.664 50.1999C175.078 50.1869 174.501 50.3519 174.008 50.6737C173.527 50.998 173.142 51.4483 172.895 51.9764C172.622 52.58 172.487 53.2376 172.499 53.9009C172.485 54.5596 172.62 55.2128 172.895 55.8106C173.139 56.3378 173.531 56.7806 174.023 57.0837C174.555 57.4015 175.164 57.5606 175.782 57.5426C176.221 57.5474 176.658 57.4722 177.071 57.3206C177.429 57.1847 177.754 56.9726 178.024 56.6988C178.277 56.429 178.467 56.1053 178.581 55.7514L177.54 55.4553C177.459 55.6862 177.328 55.8955 177.155 56.0673C176.982 56.2392 176.773 56.369 176.544 56.4472C176.297 56.5271 176.04 56.567 175.782 56.5656C175.377 56.5715 174.977 56.4694 174.624 56.2695C174.292 56.0719 174.026 55.7779 173.862 55.4257C173.69 55.0445 173.6 54.6307 173.598 54.2118H178.683V53.7529C178.695 53.185 178.611 52.6192 178.434 52.08C178.281 51.6678 178.041 51.2941 177.731 50.9845ZM173.598 53.2791C173.615 52.9557 173.695 52.6389 173.833 52.3465C174.002 52.0113 174.248 51.7219 174.551 51.5027C174.884 51.2918 175.271 51.1838 175.664 51.1918C176.024 51.1833 176.379 51.2755 176.69 51.4583C176.975 51.6371 177.203 51.8937 177.35 52.1985C177.511 52.5349 177.591 52.9052 177.584 53.2791H173.598Z" fill="#A5A5A5"/>
<path d="M182.523 51.4582C182.846 51.2356 183.231 51.1216 183.622 51.1325C184.035 51.1071 184.443 51.2392 184.765 51.5026C185.026 51.728 185.215 52.0269 185.307 52.3612H186.391C186.34 51.9409 186.178 51.5421 185.923 51.2065C185.661 50.8708 185.324 50.602 184.941 50.4219C184.521 50.2337 184.066 50.1378 183.607 50.1406C183.021 50.1276 182.444 50.2926 181.951 50.6143C181.466 50.9346 181.081 51.386 180.837 51.9171C180.563 52.5149 180.428 53.1681 180.442 53.8268C180.433 54.4787 180.563 55.1248 180.823 55.7217C181.065 56.2446 181.446 56.6901 181.922 57.0096C182.427 57.3401 183.02 57.5055 183.622 57.4834C184.093 57.5011 184.562 57.3993 184.985 57.1873C185.362 57.0097 185.689 56.74 185.937 56.4027C186.177 56.0653 186.333 55.6742 186.391 55.2628H185.307C185.253 55.5103 185.137 55.7397 184.97 55.9289C184.811 56.1167 184.61 56.2638 184.384 56.3582C184.143 56.4624 183.883 56.513 183.622 56.5063C183.225 56.5119 182.835 56.393 182.508 56.1658C182.181 55.9252 181.927 55.597 181.775 55.2183C181.596 54.7463 181.512 54.2432 181.526 53.7379C181.516 53.2605 181.606 52.7862 181.79 52.3464C181.949 51.9878 182.202 51.6804 182.523 51.4582Z" fill="#A5A5A5"/>
<path d="M190.158 51.4582C190.481 51.2356 190.866 51.1216 191.257 51.1325C191.635 51.1065 192.011 51.2151 192.319 51.4395C192.627 51.6639 192.847 51.9899 192.942 52.3612H194.027C193.975 51.9409 193.813 51.5421 193.558 51.2065C193.296 50.8708 192.959 50.602 192.576 50.4219C192.156 50.2337 191.701 50.1378 191.242 50.1406C190.656 50.1276 190.079 50.2926 189.586 50.6143C189.101 50.9346 188.716 51.386 188.472 51.9171C188.198 52.5149 188.063 53.1681 188.077 53.8268C188.068 54.4787 188.198 55.1248 188.458 55.7217C188.7 56.2446 189.081 56.6901 189.557 57.0096C190.018 57.2867 190.538 57.4474 191.074 57.4783C191.61 57.5093 192.145 57.4094 192.634 57.1873C193.007 57.0088 193.329 56.7393 193.572 56.4032C193.815 56.0672 193.971 55.6752 194.027 55.2628H192.942C192.888 55.5103 192.772 55.7397 192.605 55.9289C192.448 56.1129 192.253 56.2595 192.034 56.3582C191.788 56.4623 191.523 56.5128 191.257 56.5063C190.86 56.5119 190.471 56.3929 190.143 56.1658C189.816 55.9252 189.562 55.597 189.41 55.2183C189.232 54.7463 189.147 54.2432 189.161 53.7379C189.151 53.2605 189.241 52.7862 189.425 52.3464C189.584 51.9878 189.837 51.6804 190.158 51.4582Z" fill="#A5A5A5"/>
<path d="M197.031 55.7364V50.2441H195.961V57.3352H197.221L200.592 51.843V57.3352H201.662V50.2441H200.416L197.031 55.7364Z" fill="#A5A5A5"/>
<path d="M206.937 48.7788C206.812 48.7905 206.686 48.7726 206.569 48.7263C206.452 48.68 206.347 48.6067 206.263 48.5123C206.135 48.3256 206.068 48.1029 206.073 47.8757H205.061C205.055 48.1056 205.098 48.3342 205.186 48.5461C205.275 48.758 205.407 48.9484 205.574 49.1045C205.952 49.4325 206.44 49.602 206.937 49.5782C207.2 49.6012 207.465 49.5713 207.717 49.4899C207.969 49.4086 208.202 49.2776 208.403 49.1045C208.572 48.9503 208.706 48.7602 208.795 48.5479C208.883 48.3355 208.925 48.106 208.916 47.8757H207.919C207.92 48.1071 207.843 48.3319 207.699 48.5123C207.606 48.6192 207.486 48.6999 207.353 48.7466C207.219 48.7933 207.076 48.8044 206.937 48.7788Z" fill="#A5A5A5"/>
<path d="M205.164 55.7364V50.2441H204.08V57.3352H205.354L208.725 51.843V57.3352H209.795V50.2441H208.549L205.164 55.7364Z" fill="#A5A5A5"/>
<path d="M22.612 2.13167C20.224 1.02415 17.6187 0.47755 14.9916 0.53287H0V39.3486H7.91347V25.6698H14.8597C18.6996 25.8987 22.494 24.7331 25.5576 22.3833C26.8394 21.2806 27.8545 19.8962 28.5251 18.3361C29.1957 16.776 29.504 15.0816 29.4264 13.3826C29.467 11.0238 28.8528 8.70062 27.6532 6.67646C26.4507 4.69459 24.6975 3.114 22.612 2.13167ZM19.7837 17.7053C18.423 18.7813 16.7154 19.3089 14.9916 19.1857H7.91347V7.01692H15.2408C16.0869 6.98555 16.9304 7.12966 17.7193 7.44028C18.5082 7.7509 19.2257 8.22146 19.8276 8.82299C20.3921 9.44415 20.829 10.1722 21.1133 10.965C21.3975 11.7577 21.5234 12.5996 21.4836 13.4418C21.5269 14.2349 21.3971 15.0279 21.1033 15.7647C20.8096 16.5015 20.3591 17.164 19.7837 17.7053Z" fill="#A5A5A5"/>
<path d="M55.3357 39.3488H63.8353V38.9787L55.5262 23.1089C57.6173 22.2428 59.4109 20.7758 60.6846 18.8898C61.8753 16.8922 62.4658 14.5881 62.3845 12.2577C62.4722 10.6264 62.1844 8.9967 61.5437 7.49664C60.9029 5.99659 59.9267 4.66699 58.6916 3.61226C56.2296 1.56933 52.7271 0.547852 48.1842 0.547852H33.9107V39.3635H41.8241V25.1518H48.1403L55.3357 39.3488ZM41.8241 7.01713H48.1842C49.0393 6.94565 49.8998 7.04766 50.7152 7.31715C51.5306 7.58664 52.2844 8.01816 52.9323 8.58633C53.4478 9.1729 53.8428 9.85711 54.0944 10.5992C54.346 11.3412 54.4491 12.1264 54.3978 12.9091C54.4401 13.6901 54.3154 14.4712 54.0322 15.1993C53.7489 15.9273 53.3138 16.5852 52.7565 17.1282C51.4629 18.202 49.8101 18.732 48.1403 18.6086H41.8241V7.01713Z" fill="#A5A5A5"/>
<path d="M97.1451 30.8659C98.5478 27.7084 99.2337 24.274 99.1528 20.8141V19.0821C99.2241 15.62 98.5281 12.1856 97.1158 9.03026C95.8634 6.26103 93.8227 3.93152 91.254 2.33893C88.6646 0.807634 85.7182 0.000488281 82.7177 0.000488281C79.7172 0.000488281 76.7709 0.807634 74.1814 2.33893C71.6876 3.96137 69.7207 6.28814 68.5248 9.03026C67.1046 12.1939 66.4036 15.6386 66.4731 19.1117V21.0362C66.4165 24.4507 67.1175 27.8348 68.5248 30.9399C69.7907 33.6809 71.83 35.983 74.3866 37.5573C76.9802 39.0839 79.9284 39.8883 82.9302 39.8883C85.9321 39.8883 88.8802 39.0839 91.4738 37.5573C93.9759 35.9404 95.949 33.6124 97.1451 30.8659ZM91.1368 20.9473C91.3451 24.1624 90.6165 27.3687 89.0412 30.1702C88.3777 31.1864 87.4644 32.0113 86.3906 32.564C85.3169 33.1168 84.1194 33.3784 82.9156 33.3234C81.6852 33.3738 80.4632 33.0983 79.3706 32.5245C78.2781 31.9506 77.3531 31.0981 76.6874 30.0517C75.0976 27.2487 74.3491 24.0392 74.5331 20.8141V18.934C74.3397 15.7185 75.0999 12.5177 76.7167 9.74086C77.4275 8.76466 78.3556 7.971 79.426 7.42401C80.4965 6.87701 81.6793 6.59201 82.8789 6.59201C84.0785 6.59201 85.2613 6.87701 86.3318 7.42401C87.4023 7.971 88.3304 8.76466 89.0412 9.74086C90.6649 12.5469 91.4203 15.7795 91.21 19.0229L91.1368 20.9473Z" fill="#A5A5A5"/>
<path d="M133.503 28.1569L127.202 0.532959H120.49L114.159 28.0977L108.957 0.532959H101.073L109.587 39.3487H117.559L123.816 13.3827L130.074 39.3487H138.046L146.575 0.532959H138.676L133.503 28.1569Z" fill="#A5A5A5"/>
<path d="M176.28 32.9238H158.445V22.5315H173.642V16.2546H158.445V7.01704H176.236V0.532959H150.532V39.3487H176.28V32.9238Z" fill="#A5A5A5"/>
<path d="M206.454 36.4175C207.658 35.3805 208.606 34.0734 209.222 32.6007C209.838 31.1279 210.104 29.5301 210 27.9349C210.058 25.9475 209.454 23.9979 208.285 22.3982C207.124 20.896 205.482 19.8492 203.64 19.4375C205.315 18.8272 206.753 17.691 207.743 16.1954C208.725 14.7119 209.237 12.9613 209.209 11.1769C209.299 9.65687 209.018 8.13773 208.389 6.75376C207.76 5.36978 206.804 4.16365 205.604 3.24204C203.191 1.43597 199.654 0.532959 194.994 0.532959H181.526V39.3487H196.459C200.768 39.319 204.099 38.342 206.454 36.4175ZM189.352 7.01701H194.906C196.579 6.88535 198.25 7.28937 199.683 8.1717C200.211 8.64125 200.619 9.23183 200.874 9.89384C201.129 10.5558 201.223 11.27 201.149 11.9763C201.149 15.1147 199.151 16.7234 195.155 16.8024H189.293L189.352 7.01701ZM189.352 32.9237V22.4426H196.679C200.313 22.5019 202.131 24.3079 202.131 27.8608C202.168 28.5601 202.046 29.2588 201.774 29.903C201.503 30.5472 201.088 31.1199 200.562 31.5766C199.308 32.5508 197.745 33.0296 196.166 32.9237H189.352Z" fill="#A5A5A5"/>
</g>
<defs>
<clipPath id="clip0_34_74">
<rect width="210" height="60" fill="white"/>
</clipPath>
</defs>
</svg>
