<svg width="24" height="24" viewBox="0 0 24 24" fill="none" xmlns="http://www.w3.org/2000/svg">
<path d="M10.5 20.5C12.7187 20.4995 14.8735 19.7568 16.6213 18.39L22.1162 23.885L23.8838 22.1175L18.3888 16.6225C19.7563 14.8746 20.4995 12.7193 20.5 10.5C20.5 4.98625 16.0138 0.5 10.5 0.5C4.98625 0.5 0.5 4.98625 0.5 10.5C0.5 16.0138 4.98625 20.5 10.5 20.5ZM10.5 3C14.6362 3 18 6.36375 18 10.5C18 14.6362 14.6362 18 10.5 18C6.36375 18 3 14.6362 3 10.5C3 6.36375 6.36375 3 10.5 3Z" fill="white" fill-opacity="0.6"/>
</svg>
