<svg width="30" height="30" viewBox="0 0 30 30" fill="none" xmlns="http://www.w3.org/2000/svg">
<path d="M24.4875 8.3625C23.2414 8.08849 22.1142 7.42679 21.2676 6.47237C20.421 5.51794 19.8984 4.31984 19.775 3.05V2.5H15.4625V19.5875C15.4634 20.3457 15.2257 21.085 14.783 21.7006C14.3404 22.3162 13.7153 22.7769 12.9963 23.0175C12.2773 23.2581 11.5008 23.2663 10.7768 23.0411C10.0529 22.8159 9.41812 22.3685 8.9625 21.7625C8.55431 21.2261 8.30436 20.5861 8.24091 19.915C8.17746 19.2439 8.30305 18.5684 8.60347 17.965C8.90389 17.3616 9.36716 16.8542 9.94089 16.5003C10.5146 16.1464 11.1759 15.9601 11.85 15.9625C12.2228 15.9604 12.5937 16.0152 12.95 16.125V11.75C12.5354 11.6987 12.1176 11.6778 11.7 11.6875C10.1616 11.7286 8.66865 12.2174 7.40385 13.0941C6.13906 13.9708 5.15736 15.1972 4.57897 16.6233C4.00058 18.0494 3.8506 19.6132 4.14739 21.1232C4.44419 22.6332 5.17489 24.0239 6.25 25.125C7.35186 26.2453 8.76186 27.0127 10.3009 27.3297C11.8399 27.6468 13.4384 27.4992 14.8933 26.9057C16.3483 26.3122 17.5939 25.2996 18.472 23.9966C19.3502 22.6935 19.8211 21.1588 19.825 19.5875V10.8375C21.5643 12.0799 23.65 12.7446 25.7875 12.7375V8.4875C25.3676 8.48923 24.9487 8.44734 24.5375 8.3625H24.4875Z" fill="white" fill-opacity="0.6"/>
</svg>
