<svg width="30" height="30" viewBox="0 0 30 30" fill="none" xmlns="http://www.w3.org/2000/svg">
<g clip-path="url(#clip0_34_52)">
<path fill-rule="evenodd" clip-rule="evenodd" d="M29.3125 7.435C29.52 6.7525 29.3125 6.25 28.3188 6.25H25.0375C24.2025 6.25 23.8175 6.68375 23.6087 7.1625C23.6087 7.1625 21.94 11.1575 19.5763 13.7525C18.8113 14.505 18.4638 14.7437 18.0462 14.7437C17.8375 14.7437 17.5238 14.505 17.5238 13.8212V7.435C17.5238 6.615 17.2938 6.25 16.5988 6.25H11.4388C10.9175 6.25 10.6038 6.63 10.6038 6.99125C10.6038 7.7675 11.7863 7.9475 11.9075 10.1325V14.88C11.9075 15.9213 11.7162 16.11 11.2987 16.11C10.1862 16.11 7.48 12.0962 5.87375 7.50375C5.5625 6.61 5.2475 6.25 4.40875 6.25H1.125C0.1875 6.25 0 6.68375 0 7.1625C0 8.015 1.1125 12.25 5.18125 17.8512C7.89375 21.6763 11.7125 23.75 15.1912 23.75C17.2775 23.75 17.535 23.29 17.535 22.4963V19.605C17.535 18.6838 17.7325 18.5 18.3937 18.5C18.8813 18.5 19.715 18.74 21.6625 20.5837C23.8875 22.77 24.2538 23.75 25.5063 23.75H28.7875C29.725 23.75 30.195 23.29 29.925 22.38C29.6275 21.475 28.565 20.1613 27.1562 18.6025C26.3913 17.715 25.2437 16.7587 24.895 16.28C24.4088 15.6663 24.5475 15.3925 24.895 14.8462C24.895 14.8462 28.895 9.31375 29.3112 7.435H29.3125Z" fill="white" fill-opacity="0.6"/>
</g>
<defs>
<clipPath id="clip0_34_52">
<rect width="30" height="30" fill="white"/>
</clipPath>
</defs>
</svg>
